<svg xmlns="http://www.w3.org/2000/svg" version="1.1" xmlns:xlink="http://www.w3.org/1999/xlink" width="512" height="512" x="0" y="0" viewBox="0 0 512.002 512.002" style="enable-background:new 0 0 512 512" xml:space="preserve" class=""><g><path d="M181.883 150c0-40.934 33.184-74.118 74.118-74.118s74.118 33.184 74.118 74.118-33.184 74.118-74.118 74.118-74.118-33.184-74.118-74.118zm74.118-123.53c-68.223 0-123.53 55.307-123.53 123.53s55.306 123.53 123.53 123.53c68.223 0 123.53-55.307 123.53-123.53S324.224 26.47 256.001 26.47z" style="fill-rule:evenodd;clip-rule:evenodd;" fill="#ffbebc" data-original="#ffbebc" class=""></path><circle cx="256.001" cy="150" r="24.706" style="fill-rule:evenodd;clip-rule:evenodd;" transform="rotate(-13.286 255.945 149.976)" fill="#ffbebc" data-original="#ffbebc" class=""></circle><path d="M256.001 422.432v74.16M136.001 442.001h240v60h-240zM91.274 259.92 44.42 183.238c-14.655-23.037-42.127-5.357-32.373 15.44 6.829 14.172 33.897 81.586 54.226 126.305 14.623 32.166 20.525 40.413 46.337 63.875l39.239 35.667v11.88M420.727 259.92l46.854-76.682c14.655-23.037 42.127-5.357 32.373 15.44-6.829 14.172-33.897 81.586-54.226 126.305-14.623 32.166-20.525 40.413-46.337 63.875l-39.239 35.667v11.88m-236.266-95.287c-10.937-17.65-22.062-40.604-30.944-63.051-3.387-8.56-4.713-17.8 2.538-23.894 7.25-6.094 17.973-5.314 23.828 1.732 5.611 6.753 38.829 48.508 44.439 55.26 30.959 37.262 86.173 47.752 92.254 111.268 6.082-63.516 61.295-74.005 92.254-111.268 5.61-6.752 38.828-48.506 44.439-55.26 5.855-7.046 16.577-7.826 23.828-1.732 7.251 6.094 5.925 15.334 2.538 23.894-8.883 22.447-20.008 45.401-30.944 63.051" style="fill-rule:evenodd;clip-rule:evenodd;stroke-width:20;stroke-linecap:round;stroke-linejoin:round;stroke-miterlimit:22.9256;" fill-rule="evenodd" clip-rule="evenodd" fill="none" stroke="#020288" stroke-width="20" stroke-linecap="round" stroke-linejoin="round" stroke-miterlimit="22.9256" data-original="#020288" class=""></path><circle cx="256.001" cy="150" r="123.53" style="fill-rule:evenodd;clip-rule:evenodd;stroke-width:20;stroke-linecap:round;stroke-linejoin:round;stroke-miterlimit:22.9256;" transform="rotate(-45.001 256 150.003)" fill-rule="evenodd" clip-rule="evenodd" fill="none" stroke="#020288" stroke-width="20" stroke-linecap="round" stroke-linejoin="round" stroke-miterlimit="22.9256" data-original="#020288" class=""></circle><path d="M256.001 10v65.882M116.001 150h65.882M256.001 290v-65.882M396.001 150h-65.882" style="fill-rule:evenodd;clip-rule:evenodd;stroke-width:20;stroke-linecap:round;stroke-linejoin:round;stroke-miterlimit:22.9256;" fill-rule="evenodd" clip-rule="evenodd" fill="none" stroke="#020288" stroke-width="20" stroke-linecap="round" stroke-linejoin="round" stroke-miterlimit="22.9256" data-original="#020288" class=""></path></g></svg>