<svg xmlns="http://www.w3.org/2000/svg" version="1.1" xmlns:xlink="http://www.w3.org/1999/xlink" width="512" height="512" x="0" y="0" viewBox="0 0 64 64" style="enable-background:new 0 0 512 512" xml:space="preserve" class=""><g><path fill="#656d78" d="m16.08 12.55-3.11 1.87c-.6.36-.97 1.01-.97 1.71V18h-2l-.08-.11A11.53 11.53 0 0 1 8 11.53c0-1.71.46-3.35 1.29-4.78s2.03-2.65 3.51-3.49A9.462 9.462 0 0 1 17.53 2h4.94c1.66 0 3.29.43 4.73 1.26 1.48.84 2.68 2.06 3.51 3.49S32 9.82 32 11.53c0 2.26-.67 4.47-1.92 6.36L30 18h-2v-2.17c0-.53-.21-1.04-.59-1.42l-.85-.85c-.45.28-.99.44-1.56.44h-7c-.55 0-1.05-.22-1.41-.59-.24-.23-.42-.53-.51-.86z" opacity="1" data-original="#656d78" class=""></path><path fill="#ff826e" d="m22 40 1 8h-6l1-8z" opacity="1" data-original="#ff826e" class=""></path><path fill="#fc6e51" d="m20 35 2.93 2.2L22 40h-4l-.93-2.8z" opacity="1" data-original="#fc6e51"></path><path fill="#fcd770" d="m22 40 .93-2.8L24 38l1.71-6H26c9.94 0 18-8.06 18-18h8v1.97C52 26.78 45.19 36.4 35 40c-1.1 0-2 .9-2 2v11c-1.25-1.87-3.35-3-5.61-3H25v-2h-2z" opacity="1" data-original="#fcd770" class=""></path><path fill="#fcd770" d="M17 48h8v8h-8.84c-3.91 0-7.45-1.58-10.01-4.15C3.58 49.29 2 45.75 2 41.84 2 36.41 6.41 32 11.84 32h2.45L16 38l1.07-.8L18 40z" opacity="1" data-original="#fcd770" class=""></path><path fill="#ffc729" d="M25.71 32 24 38l-1.07-.8L20 35l4.25-3.4c.34.26.75.4 1.19.4zM20 35l-2.93 2.2L16 38l-1.71-6h.27c.44 0 .85-.14 1.19-.4z" opacity="1" data-original="#ffc729"></path><path fill="#aab2bd" d="M52 56v1c0 2.76-2.24 5-5 5H23c-1.38 0-2.63-.56-3.54-1.46-.9-.91-1.46-2.16-1.46-3.54 0-.55.45-1 1-1h14z" opacity="1" data-original="#aab2bd"></path><path fill="#ccd1d9" d="M35 40h11.08c-.06.32-.08.66-.08 1 0 3.53 2.6 6.44 6 6.92V56H33V42c0-1.1.9-2 2-2z" opacity="1" data-original="#ccd1d9" class=""></path><path fill="#f0d0b4" d="M33 53v3h-8v-6h2.39c2.26 0 4.36 1.13 5.61 3zM44 6.54V6c0-2.21 1.79-4 4-4 1.1 0 2.1.45 2.83 1.17C51.55 3.9 52 4.9 52 6v8h-8l-.76-.76a4.246 4.246 0 0 1-1.24-3V10c0-1.1.45-2.1 1.17-2.83.25-.24.53-.46.83-.63zM30 18c1.1 0 2 .9 2 2 0 .55-.22 1.05-.59 1.41-.36.37-.86.59-1.41.59h-2v-4zM24.25 31.6 20 35l-4.25-3.4c.32-.23.57-.57.71-.97l.42-1.26c.96.41 2.02.63 3.12.63l3.12-.63.42 1.26c.14.4.39.74.71.97z" opacity="1" data-original="#f0d0b4" class=""></path><path fill="#f0d0b4" d="M18 14h7c.57 0 1.11-.16 1.56-.44l.85.85c.38.38.59.89.59 1.42V22c0 2.21-.9 4.21-2.34 5.66-.72.72-1.59 1.3-2.54 1.71L20 30a7.986 7.986 0 0 1-8-8v-5.87c0-.7.37-1.35.97-1.71l3.11-1.87c.09.33.27.63.51.86.36.37.86.59 1.41.59z" opacity="1" data-original="#f0d0b4" class=""></path><path fill="#f0d0b4" d="M12 18v4h-2c-.55 0-1.05-.22-1.41-.59C8.22 21.05 8 20.55 8 20c0-1.1.9-2 2-2z" opacity="1" data-original="#f0d0b4" class=""></path><path fill="#ff826e" d="M60 41c0 3.87-3.13 7-7 7-.34 0-.67-.02-1-.08-3.4-.48-6-3.39-6-6.92 0-.34.02-.68.08-1 .48-3.4 3.39-6 6.92-6 2.44 0 4.59 1.25 5.85 3.15.73 1.1 1.15 2.42 1.15 3.85zM23 22l-.51 2.06a2.568 2.568 0 0 1-4.98 0L17 22z" opacity="1" data-original="#ff826e" class=""></path><path d="M23.455 24.302 24.281 21h-8.562l.826 3.302C16.941 25.891 18.362 27 20 27s3.059-1.109 3.455-2.698zm-4.97-.485L18.281 23h3.438l-.205.817C21.341 24.514 20.718 25 20 25s-1.341-.486-1.515-1.183z" fill="#000000" opacity="1" data-original="#000000" class=""></path><circle cx="16" cy="18" r="1" fill="#000000" opacity="1" data-original="#000000" class=""></circle><circle cx="24" cy="18" r="1" fill="#000000" opacity="1" data-original="#000000" class=""></circle><path d="M36 43h2v10h-2z" fill="#000000" opacity="1" data-original="#000000" class=""></path><path d="m62.707 34.707-1.414-1.414-2.36 2.36A7.973 7.973 0 0 0 53 33c-3.719 0-6.845 2.555-7.737 6h-5.701C47.746 34.359 53 25.604 53 15.972V6c0-2.757-2.243-5-5-5s-5 2.243-5 5v.026c-1.207.913-2 2.347-2 3.974v.243c0 1.4.545 2.717 1.536 3.707l.444.444C42.768 23.585 35.241 31 26 31h-.559a1 1 0 0 1-.949-.684l-.147-.441a9.012 9.012 0 0 0 4.595-6.876H30c1.654 0 3-1.346 3-3a2.992 2.992 0 0 0-1.489-2.577A12.398 12.398 0 0 0 33 11.531c0-3.77-2.033-7.273-5.306-9.144A10.556 10.556 0 0 0 22.469 1h-4.938c-1.83 0-3.637.48-5.225 1.388A10.552 10.552 0 0 0 7 11.531c0 2.071.516 4.084 1.489 5.892A2.992 2.992 0 0 0 7 20c0 1.654 1.346 3 3 3h1.059a9.012 9.012 0 0 0 4.595 6.876l-.147.44a.998.998 0 0 1-.948.684h-2.715C5.864 31 1 35.864 1 41.844 1 50.201 7.799 57 16.156 57H17c0 3.309 2.691 6 6 6h24c3.309 0 6-2.691 6-6v-8c4.411 0 8-3.589 8-8 0-1.328-.33-2.578-.905-3.681zM43 10c0-1.654 1.346-3 3-3 .551 0 1 .449 1 1s-.449 1-1 1h-1v2h1c1.654 0 3-1.346 3-3s-1.346-3-3-3c-.288 0-.567.038-.842.085A2.993 2.993 0 0 1 48 3c1.654 0 3 1.346 3 3v7h-6.586l-.464-.464a3.22 3.22 0 0 1-.95-2.293zm1.974 5H51v.972c0 9.879-5.975 18.76-15 22.555V37h-2v2.184A2.996 2.996 0 0 0 32 42v8.53A7.715 7.715 0 0 0 27.395 49H26v-2h-2.117l-.862-6.899.423-1.269 1.119.839 1.913-6.695C36.398 32.73 44.46 24.855 44.974 15zM26 51h1.395c1.829 0 3.526.872 4.605 2.334V55h-6zM15.638 32.791l2.729 2.183-1.805 1.354-1.002-3.505c.027-.009.052-.022.078-.032zm8.724 0c.026.01.051.023.078.032l-1.002 3.505-1.805-1.354zm-4.382 3.474.02.016.02-.016 1.737 1.303L21.279 39H18.72l-.477-1.433zM18.883 41h2.235l.75 6h-3.735zM30 21h-1v-2h1c.551 0 1 .449 1 1s-.449 1-1 1zM9 20c0-.551.449-1 1-1h1v2h-1c-.551 0-1-.449-1-1zm2-3.868V17h-.448A10.42 10.42 0 0 1 9 11.531a8.55 8.55 0 0 1 4.298-7.407A8.55 8.55 0 0 1 17.531 3h4.938a8.55 8.55 0 0 1 4.233 1.124A8.55 8.55 0 0 1 31 11.531c0 1.941-.54 3.821-1.552 5.469H29v-1.171c0-.801-.312-1.555-.879-2.122l-.107-.107A3.963 3.963 0 0 0 29 11h-2c0 1.103-.897 2-2 2h-7c-.551 0-1-.449-1-1s.449-1 1-1h1V9h-1c-1.654 0-3 1.346-3 3 0 .011.003.021.003.032l-2.546 1.528A3.013 3.013 0 0 0 11 16.132zM13 22v-5.868c0-.349.186-.678.486-.857l2.238-1.343A2.98 2.98 0 0 0 18 15h7a3.97 3.97 0 0 0 1.339-.247l.368.368a.996.996 0 0 1 .293.708V22c0 3.86-3.14 7-7 7s-7-3.14-7-7zm7 9c.865 0 1.7-.13 2.493-.359l.102.308c.06.18.14.349.23.51L20 33.719l-2.826-2.26c.09-.162.17-.33.231-.511l.102-.307A8.963 8.963 0 0 0 20 31zm-3.844 24C8.902 55 3 49.098 3 41.844 3 36.967 6.967 33 11.844 33h1.688l1.906 6.672 1.119-.839.423 1.269L16.117 47h-1.201A3.921 3.921 0 0 1 11 43.083V37H9v6.083A5.923 5.923 0 0 0 14.917 49H24v6h-5zM47 61H23c-2.206 0-4-1.794-4-4h32c0 2.206-1.794 4-4 4zm4-6H34V42c0-.551.449-1 1-1h10c0 3.719 2.555 6.845 6 7.737zm8-14c0 3.309-2.691 6-6 6s-6-2.691-6-6 2.691-6 6-6c1.803 0 3.419.803 4.52 2.066L53 41.586l-2.293-2.293-1.414 1.414L53 44.414l5.587-5.587c.263.675.413 1.406.413 2.173z" fill="#000000" opacity="1" data-original="#000000" class=""></path></g></svg>