<svg xmlns="http://www.w3.org/2000/svg" version="1.1" xmlns:xlink="http://www.w3.org/1999/xlink" width="512" height="512" x="0" y="0" viewBox="0 0 512.308 512.308" style="enable-background:new 0 0 512 512" xml:space="preserve" class=""><g><path d="M359.092 358.508v-75.973c0-12.016 9.478-22.165 21.492-22.373a21.8 21.8 0 0 1 15.858 6.407c3.96 3.95 6.41 9.43 6.41 15.47v40.38l2.39.89a82.433 82.433 0 0 1 40.66 33.09l1.33 2.11h45.496c5.763 0 10.434 4.672 10.434 10.434v114.492c0 5.763-4.671 10.434-10.434 10.434h-30.056a75.485 75.485 0 0 1-39.15 10.94h-125.03c-5.05 0-9.62-2.05-12.93-5.36s-5.36-7.88-5.36-12.93c0-8.81 6.23-16.17 14.53-17.9l-.09-.39h-7.62c-5.05 0-9.62-2.05-12.93-5.35a18.23 18.23 0 0 1-5.36-12.93c0-10.1 8.19-18.29 18.29-18.29h-5.99c-5.05 0-9.62-2.05-12.93-5.36s-5.35-7.88-5.35-12.93c0-10.1 8.18-18.29 18.28-18.29h-82.76c-5.05 0-9.62-2.05-12.93-5.36a18.227 18.227 0 0 1-5.349-13.151c.119-10.086 8.655-18.059 18.741-18.059h160.358z" style="" fill="#ffe6c6" data-original="#ffe6c6"></path><path d="M326.183 384.824a8.326 8.326 0 0 0-8.326-8.326H198.272c-5.05 0-9.62-2.05-12.93-5.36a18.302 18.302 0 0 1-2.759-3.576c-1.599 2.642-2.551 5.706-2.59 9.004a18.217 18.217 0 0 0 5.349 13.151 18.23 18.23 0 0 0 12.93 5.36h127.911v-10.253zM492.728 475.288h-30.056a75.485 75.485 0 0 1-39.15 10.94h-125.03c-5.05 0-9.62-2.05-12.93-5.36a18.426 18.426 0 0 1-2.81-3.653 18.198 18.198 0 0 0-2.55 9.303c0 5.05 2.05 9.62 5.36 12.93a18.23 18.23 0 0 0 12.93 5.36h125.03c13.8 0 27.35-3.78 39.15-10.94h30.056c5.763 0 10.434-4.671 10.434-10.434v-18.58c0 5.762-4.672 10.434-10.434 10.434z" style="" fill="#f8d3aa" data-original="#f8d3aa"></path><path d="M231.272 117.228h82.76c5.05 0 9.62 2.05 12.93 5.36a18.233 18.233 0 0 1 5.359 13.15c-.119 10.094-8.667 18.07-18.762 18.07H153.222v76.46c0 6.05-2.45 11.52-6.41 15.48a21.838 21.838 0 0 1-15.86 6.407c-12.017-.204-21.5-10.355-21.5-22.373v-39.893l-2.38-.89a82.294 82.294 0 0 1-40.66-33.09l-1.34-2.1H14.58a5.428 5.428 0 0 1-5.428-5.428V23.866a5.428 5.428 0 0 1 5.428-5.428h35.052a75.52 75.52 0 0 1 39.16-10.94h125.03c5.05 0 9.62 2.05 12.93 5.36s5.36 7.88 5.36 12.93c0 8.81-6.23 16.17-14.53 17.9l.09.39h7.61c5.05 0 9.62 2.05 12.93 5.36a18.23 18.23 0 0 1 5.36 12.93c0 10.1-8.19 18.28-18.29 18.28h5.99c5.05 0 9.62 2.05 12.93 5.36a18.23 18.23 0 0 1 5.36 12.93c0 10.1-8.19 18.29-18.29 18.29z" style="" fill="#ffe6c6" data-original="#ffe6c6"></path><path d="M332.32 135.737c.01-.832-.041-1.645-.139-2.448H173.74c-11.332 0-20.518 9.186-20.518 20.518h160.337c10.094.001 18.643-7.975 18.761-18.07z" style="" fill="#f8d3aa" data-original="#f8d3aa"></path><path d="M503.158 358.505h-55.924l-1.333-2.108a82.365 82.365 0 0 0-40.663-33.086l-2.382-.894v-40.379c0-12.086-9.798-21.884-21.884-21.884h0c-12.086 0-21.884 9.798-21.884 21.884v76.467M288.653 395.08h-7.617c-10.1 0-18.288 8.188-18.288 18.288v0c0 10.1 8.188 18.288 18.288 18.288h7.617M294.64 431.656h-7.617c-10.1 0-18.288 8.188-18.288 18.288v0c0 10.1 8.188 18.288 18.288 18.288h7.617M306.105 468.232h-7.617c-10.1 0-18.288 8.188-18.288 18.288v0c0 10.1 8.188 18.288 18.288 18.288h125.033a75.549 75.549 0 0 0 39.154-10.937h40.483M9.15 153.803h55.924l1.333 2.108a82.365 82.365 0 0 0 40.663 33.086l2.382.894v40.379c0 12.086 9.798 21.884 21.884 21.884h0c12.086 0 21.884-9.798 21.884-21.884v-76.467M223.655 117.228h7.617c10.1 0 18.288-8.188 18.288-18.288v0c0-10.1-8.188-18.288-18.288-18.288h-7.617M217.668 80.652h7.617c10.1 0 18.288-8.188 18.288-18.288v0c0-10.1-8.188-18.288-18.288-18.288h-7.617" style="stroke-width:15;stroke-linecap:round;stroke-linejoin:round;stroke-miterlimit:10;" fill="none" stroke="#000000" stroke-width="15" stroke-linecap="round" stroke-linejoin="round" stroke-miterlimit="10" data-original="#000000" class=""></path><circle cx="257.154" cy="256.138" r="23.771" style="stroke-width:15;stroke-linecap:round;stroke-linejoin:round;stroke-miterlimit:10;" fill="none" stroke="#000000" stroke-width="15" stroke-linecap="round" stroke-linejoin="round" stroke-miterlimit="10" data-original="#000000" class=""></circle><circle cx="257.154" cy="256.138" r="58.819" style="stroke-width:15;stroke-linecap:round;stroke-linejoin:round;stroke-miterlimit:10;" fill="none" stroke="#000000" stroke-width="15" stroke-linecap="round" stroke-linejoin="round" stroke-miterlimit="10" data-original="#000000" class=""></circle><path d="M393.935 231.794c-4.977-28.155-18.438-53.377-37.643-72.945M120.466 281c4.94 27.337 17.878 51.89 36.304 71.151" style="stroke-width:15;stroke-linecap:round;stroke-linejoin:round;stroke-miterlimit:10;" fill="none" stroke="#000000" stroke-width="15" stroke-linecap="round" stroke-linejoin="round" stroke-miterlimit="10" data-original="#000000" class=""></path><path d="M451.136 316.691c5.964-19.125 9.179-39.464 9.179-60.554 0-106.949-82.64-194.597-187.548-202.57M62.745 197.006c-5.684 18.712-8.752 38.562-8.752 59.132 0 106.255 81.576 193.444 185.513 202.39M257.154 197.319V185.13M315.973 256.138h12.189M257.154 314.957v12.189M198.335 256.138h-12.189" style="stroke-width:15;stroke-linecap:round;stroke-linejoin:round;stroke-miterlimit:10;" fill="none" stroke="#000000" stroke-width="15" stroke-linecap="round" stroke-linejoin="round" stroke-miterlimit="10" data-original="#000000" class=""></path><path d="M297.669 153.804h16.365c10.1 0 18.288-8.188 18.288-18.288s-8.188-18.288-18.288-18.288h-94.949M144.565 153.804h121.141M214.639 358.504h-16.365c-10.1 0-18.288 8.188-18.288 18.288h0c0 10.1 8.188 18.288 18.288 18.288h94.949M367.743 358.504H246.602M9.15 18.437h40.483A75.56 75.56 0 0 1 88.787 7.5H213.82c10.1 0 18.288 8.188 18.288 18.288h0c0 10.1-8.188 18.288-18.288 18.288h-7.617" style="stroke-width:15;stroke-linecap:round;stroke-linejoin:round;stroke-miterlimit:10;" fill="none" stroke="#000000" stroke-width="15" stroke-linecap="round" stroke-linejoin="round" stroke-miterlimit="10" data-original="#000000" class=""></path></g></svg>