<?xml version="1.0" encoding="UTF-8"?>
<!DOCTYPE svg PUBLIC "-//W3C//DTD SVG 1.1//EN" "http://www.w3.org/Graphics/SVG/1.1/DTD/svg11.dtd">
<svg xmlns="http://www.w3.org/2000/svg" version="1.1" width="1862px" height="995px" style="shape-rendering:geometricPrecision; text-rendering:geometricPrecision; image-rendering:optimizeQuality; fill-rule:evenodd; clip-rule:evenodd" xmlns:xlink="http://www.w3.org/1999/xlink">
<g><path style="opacity:0.99" fill="#000000" d="M 682.5,-0.5 C 683.167,-0.5 683.833,-0.5 684.5,-0.5C 825.488,244.139 966.488,488.806 1107.5,733.5C 824.833,734.833 542.167,734.833 259.5,733.5C 400.512,488.806 541.512,244.139 682.5,-0.5 Z M 648.5,280.5 C 649.833,280.5 651.167,280.5 652.5,280.5C 652.5,281.833 652.5,283.167 652.5,284.5C 654.39,284.703 655.89,284.037 657,282.5C 657.167,283.167 657.333,283.833 657.5,284.5C 653.5,287.833 653.5,291.167 657.5,294.5C 657.215,296.569 656.048,297.902 654,298.5C 651.564,302.6 652.73,305.267 657.5,306.5C 658.386,307.325 658.719,308.325 658.5,309.5C 660.747,309.915 662.914,310.582 665,311.5C 666.895,311.385 668.562,310.718 670,309.5C 672.97,311.401 676.136,312.901 679.5,314C 681.394,319.763 685.394,322.096 691.5,321C 695.203,322.851 698.87,324.685 702.5,326.5C 707.836,324.346 708.836,320.846 705.5,316C 709.262,310.9 714.262,309.233 720.5,311C 725.668,313.277 730.502,316.11 735,319.5C 736.441,318.74 737.941,318.074 739.5,317.5C 744.748,318.903 749.915,320.57 755,322.5C 758.62,320.852 762.287,319.518 766,318.5C 768.556,318.363 770.723,319.196 772.5,321C 776.152,321.499 779.818,321.665 783.5,321.5C 784.426,328.517 784.426,335.517 783.5,342.5C 779.75,338.246 776.583,333.579 774,328.5C 773.333,330.167 773.333,331.833 774,333.5C 779.114,343.718 784.78,353.718 791,363.5C 790.649,365.886 790.815,368.219 791.5,370.5C 792.845,371.347 793.845,372.513 794.5,374C 795.448,374.483 796.448,374.649 797.5,374.5C 797.343,375.873 797.51,377.207 798,378.5C 800.673,380.356 801.173,382.689 799.5,385.5C 800.774,388.367 801.607,391.367 802,394.5C 805,396.167 807.333,398.5 809,401.5C 809.521,404.919 810.355,408.252 811.5,411.5C 813.692,412.859 815.359,414.692 816.5,417C 821.223,419.063 825.389,421.896 829,425.5C 829.953,427.455 831.287,429.122 833,430.5C 833.333,432.5 833.667,434.5 834,436.5C 835.939,438.194 837.772,440.027 839.5,442C 846.015,441.391 852.348,439.891 858.5,437.5C 864.342,438.944 869.509,437.611 874,433.5C 875.153,436.356 875.986,439.356 876.5,442.5C 873.983,444.457 872.816,447.124 873,450.5C 870.578,454.344 867.911,458.01 865,461.5C 864.667,463.5 864.333,465.5 864,467.5C 855.293,479.208 844.959,489.208 833,497.5C 828.699,503.967 823.532,509.634 817.5,514.5C 813.701,519.765 810.701,525.432 808.5,531.5C 810.689,533.262 812.356,535.429 813.5,538C 812.971,539.559 812.304,541.059 811.5,542.5C 812.561,546.949 814.394,550.949 817,554.5C 817.857,562.344 818.691,570.177 819.5,578C 818.591,584.897 815.258,590.23 809.5,594C 807.833,594.333 806.167,594.667 804.5,595C 797.963,600.371 791.963,606.204 786.5,612.5C 787.048,614.556 788.214,616.223 790,617.5C 790.236,623.038 790.736,628.538 791.5,634C 790.899,635.605 789.899,636.938 788.5,638C 785.56,639.152 782.56,640.152 779.5,641C 777.777,641.523 776.444,642.523 775.5,644C 776.628,645.468 777.294,647.135 777.5,649C 776.657,653.04 775.657,657.04 774.5,661C 772.198,662.824 769.865,664.658 767.5,666.5C 762.707,677.524 755.374,686.691 745.5,694C 740.91,695.474 736.243,696.641 731.5,697.5C 727.813,696.967 724.147,696.634 720.5,696.5C 715.769,698.479 710.936,700.146 706,701.5C 700.939,698.271 697.106,693.938 694.5,688.5C 696.395,686.133 696.895,683.466 696,680.5C 690.479,670.055 684.813,659.722 679,649.5C 677.315,640.13 675.982,630.797 675,621.5C 673.667,620.833 672.667,619.833 672,618.5C 671.231,610.952 667.898,604.952 662,600.5C 660.719,593.421 661.719,586.754 665,580.5C 665.333,577.167 665.667,573.833 666,570.5C 669.709,567.802 672.209,564.302 673.5,560C 671.065,556.566 669.065,552.9 667.5,549C 668.783,547.864 669.783,546.531 670.5,545C 669.528,542.889 668.695,540.722 668,538.5C 664.181,535.065 662.515,530.731 663,525.5C 660.528,523.702 658.861,521.368 658,518.5C 653.151,516.913 649.484,513.913 647,509.5C 647.471,500.769 648.637,492.103 650.5,483.5C 650.257,479.849 648.59,477.016 645.5,475C 639.5,474.667 633.5,474.333 627.5,474C 625.647,471.429 623.981,468.762 622.5,466C 619.308,465.803 616.308,464.97 613.5,463.5C 605.991,466.752 598.325,469.585 590.5,472C 587.032,473.081 584.032,472.415 581.5,470C 580,469.833 578.5,469.667 577,469.5C 570.226,470.591 563.726,472.591 557.5,475.5C 547.618,470.976 538.451,465.31 530,458.5C 524.523,450.032 518.689,441.865 512.5,434C 510.671,433.727 509.171,432.893 508,431.5C 506.341,428.57 506.008,425.57 507,422.5C 504.984,420.316 502.817,418.316 500.5,416.5C 503.437,415.197 506.103,413.53 508.5,411.5C 508.291,410.914 507.957,410.414 507.5,410C 510.759,402.023 511.259,393.856 509,385.5C 508.29,384.027 507.124,383.36 505.5,383.5C 504.782,379.097 505.949,375.43 509,372.5C 510.977,365.879 513.977,359.879 518,354.5C 522.046,350.282 525.546,345.615 528.5,340.5C 530.444,339.811 532.444,339.311 534.5,339C 538,335.5 541.5,332 545,328.5C 543.229,319.813 545.729,312.313 552.5,306C 561.049,304.949 565.049,300.116 564.5,291.5C 566.199,291.34 567.866,291.506 569.5,292C 570.817,293.659 572.483,294.826 574.5,295.5C 579.482,294.881 584.482,294.214 589.5,293.5C 593.806,291.392 598.14,289.225 602.5,287C 607.377,286.635 612.043,285.635 616.5,284C 620.029,283.378 623.529,283.545 627,284.5C 631.27,282.824 635.603,282.49 640,283.5C 642.98,282.564 645.814,281.564 648.5,280.5 Z"/></g>
<g><path style="opacity:0.993" fill="#000000" d="M 752.5,-0.5 C 1035.17,-0.5 1317.83,-0.5 1600.5,-0.5C 1459.93,244.971 1318.6,489.971 1176.5,734.5C 1034.4,489.971 893.067,244.971 752.5,-0.5 Z M 1011.5,133.5 C 1121.33,132.168 1231.33,132.168 1341.5,133.5C 1286.67,228.5 1231.83,323.5 1177,418.5C 1121.97,323.331 1066.8,228.331 1011.5,133.5 Z"/></g>
<g><path style="opacity:0.966" fill="#000000" d="M 1619.5,994.5 C 1612.5,994.5 1605.5,994.5 1598.5,994.5C 1573.49,990.995 1551.82,980.495 1533.5,963C 1541.74,953.438 1549.91,943.938 1558,934.5C 1570.31,945.574 1584.48,953.407 1600.5,958C 1607.58,958.884 1614.58,958.551 1621.5,957C 1634.46,949.659 1635.79,940.659 1625.5,930C 1621.07,927.449 1616.4,925.449 1611.5,924C 1593.57,920.58 1576.57,914.58 1560.5,906C 1551.32,899.807 1545.49,891.307 1543,880.5C 1536.44,846.094 1549.94,824.26 1583.5,815C 1609.92,810.014 1634.92,814.014 1658.5,827C 1662.96,829.626 1666.96,832.793 1670.5,836.5C 1663.86,846.305 1657.03,855.972 1650,865.5C 1633.18,851.559 1614.01,846.393 1592.5,850C 1580.68,857.447 1579.68,866.114 1589.5,876C 1595.26,878.922 1601.26,881.255 1607.5,883C 1626.96,886.257 1644.63,893.59 1660.5,905C 1671.86,918.08 1676.02,933.247 1673,950.5C 1669.74,968.178 1659.91,980.678 1643.5,988C 1635.63,991.132 1627.63,993.298 1619.5,994.5 Z"/></g>
<g><path style="opacity:0.972" fill="#000000" d="M -0.5,992.5 C -0.5,991.833 -0.5,991.167 -0.5,990.5C 24.9343,933.059 50.101,875.392 75,817.5C 88.0872,816.511 101.254,816.177 114.5,816.5C 139.206,874.917 164.206,933.251 189.5,991.5C 175.167,992.833 160.833,992.833 146.5,991.5C 141.57,979.142 136.237,966.976 130.5,955C 106.5,954.333 82.5,954.333 58.5,955C 53.3127,967.21 47.9794,979.377 42.5,991.5C 28.1821,992.499 13.8488,992.833 -0.5,992.5 Z M 94.5,871.5 C 101.772,887.124 108.772,902.958 115.5,919C 101.5,919.667 87.5,919.667 73.5,919C 80.6434,903.215 87.6434,887.381 94.5,871.5 Z"/></g>
<g><path style="opacity:0.967" fill="#000000" d="M 233.5,816.5 C 246.833,816.5 260.167,816.5 273.5,816.5C 273.5,863.167 273.5,909.833 273.5,956.5C 298.5,956.5 323.5,956.5 348.5,956.5C 348.5,968.5 348.5,980.5 348.5,992.5C 310.167,992.5 271.833,992.5 233.5,992.5C 233.5,933.833 233.5,875.167 233.5,816.5 Z"/></g>
<g><path style="opacity:0.969" fill="#000000" d="M 371.5,816.5 C 417.833,816.5 464.167,816.5 510.5,816.5C 510.5,828.167 510.5,839.833 510.5,851.5C 493.833,851.5 477.167,851.5 460.5,851.5C 460.5,898.5 460.5,945.5 460.5,992.5C 447.167,992.5 433.833,992.5 420.5,992.5C 420.5,945.5 420.5,898.5 420.5,851.5C 404.167,851.5 387.833,851.5 371.5,851.5C 371.5,839.833 371.5,828.167 371.5,816.5 Z"/></g>
<g><path style="opacity:0.975" fill="#000000" d="M 562.5,816.5 C 604.833,816.5 647.167,816.5 689.5,816.5C 689.5,828.5 689.5,840.5 689.5,852.5C 660.5,852.5 631.5,852.5 602.5,852.5C 602.5,864.167 602.5,875.833 602.5,887.5C 628.5,887.5 654.5,887.5 680.5,887.5C 680.5,898.833 680.5,910.167 680.5,921.5C 654.5,921.5 628.5,921.5 602.5,921.5C 602.5,933.5 602.5,945.5 602.5,957.5C 632.5,957.5 662.5,957.5 692.5,957.5C 692.5,969.167 692.5,980.833 692.5,992.5C 649.167,992.5 605.833,992.5 562.5,992.5C 562.5,933.833 562.5,875.167 562.5,816.5 Z"/></g>
<g><path style="opacity:0.972" fill="#000000" d="M 750.5,816.5 C 776.502,816.333 802.502,816.5 828.5,817C 882.046,819.53 902.546,847.03 890,899.5C 884.589,913.912 874.755,924.078 860.5,930C 875.167,950.667 889.833,971.333 904.5,992C 887.823,992.833 871.157,992.666 854.5,991.5C 842.028,973.195 829.361,955.029 816.5,937C 807.84,936.5 799.173,936.334 790.5,936.5C 790.5,955.167 790.5,973.833 790.5,992.5C 777.167,992.5 763.833,992.5 750.5,992.5C 750.5,933.833 750.5,875.167 750.5,816.5 Z M 790.5,851.5 C 804.171,851.333 817.837,851.5 831.5,852C 845.719,853.386 852.719,861.219 852.5,875.5C 852.957,886.093 848.624,893.927 839.5,899C 832.644,900.913 825.644,901.913 818.5,902C 809.173,902.5 799.839,902.666 790.5,902.5C 790.5,885.5 790.5,868.5 790.5,851.5 Z"/></g>
<g><path style="opacity:0.967" fill="#000000" d="M 932.5,816.5 C 946.849,816.167 961.182,816.501 975.5,817.5C 989.98,853.614 1004.65,889.614 1019.5,925.5C 1034.27,889.622 1048.77,853.622 1063,817.5C 1077.42,816.51 1091.92,816.176 1106.5,816.5C 1083.83,874.996 1060.67,933.329 1037,991.5C 1025.33,992.833 1013.67,992.833 1002,991.5C 978.334,933.329 955.167,874.996 932.5,816.5 Z"/></g>
<g><path style="opacity:0.975" fill="#000000" d="M 1151.5,816.5 C 1193.83,816.5 1236.17,816.5 1278.5,816.5C 1278.5,828.5 1278.5,840.5 1278.5,852.5C 1249.5,852.5 1220.5,852.5 1191.5,852.5C 1191.5,864.167 1191.5,875.833 1191.5,887.5C 1217.5,887.5 1243.5,887.5 1269.5,887.5C 1269.5,898.833 1269.5,910.167 1269.5,921.5C 1243.5,921.5 1217.5,921.5 1191.5,921.5C 1191.5,933.5 1191.5,945.5 1191.5,957.5C 1221.5,957.5 1251.5,957.5 1281.5,957.5C 1281.5,969.167 1281.5,980.833 1281.5,992.5C 1238.17,992.5 1194.83,992.5 1151.5,992.5C 1151.5,933.833 1151.5,875.167 1151.5,816.5 Z"/></g>
<g><path style="opacity:0.972" fill="#000000" d="M 1339.5,816.5 C 1365.5,816.333 1391.5,816.5 1417.5,817C 1471.05,819.53 1491.55,847.03 1479,899.5C 1473.59,913.912 1463.76,924.078 1449.5,930C 1464.17,950.667 1478.83,971.333 1493.5,992C 1476.82,992.833 1460.16,992.666 1443.5,991.5C 1431.03,973.195 1418.36,955.029 1405.5,937C 1396.84,936.5 1388.17,936.334 1379.5,936.5C 1379.5,955.167 1379.5,973.833 1379.5,992.5C 1366.17,992.5 1352.83,992.5 1339.5,992.5C 1339.5,933.833 1339.5,875.167 1339.5,816.5 Z M 1379.5,851.5 C 1393.17,851.333 1406.84,851.5 1420.5,852C 1434.72,853.386 1441.72,861.219 1441.5,875.5C 1441.96,886.093 1437.62,893.927 1428.5,899C 1421.64,900.913 1414.64,901.913 1407.5,902C 1398.17,902.5 1388.84,902.666 1379.5,902.5C 1379.5,885.5 1379.5,868.5 1379.5,851.5 Z"/></g>
<g><path style="opacity:0.975" fill="#000000" d="M 1861.5,957.5 C 1861.5,969.167 1861.5,980.833 1861.5,992.5C 1818.17,992.5 1774.83,992.5 1731.5,992.5C 1731.5,933.833 1731.5,875.167 1731.5,816.5C 1773.83,816.5 1816.17,816.5 1858.5,816.5C 1858.5,828.5 1858.5,840.5 1858.5,852.5C 1829.5,852.5 1800.5,852.5 1771.5,852.5C 1771.5,864.167 1771.5,875.833 1771.5,887.5C 1797.5,887.5 1823.5,887.5 1849.5,887.5C 1849.5,898.833 1849.5,910.167 1849.5,921.5C 1823.5,921.5 1797.5,921.5 1771.5,921.5C 1771.5,933.5 1771.5,945.5 1771.5,957.5C 1801.5,957.5 1831.5,957.5 1861.5,957.5 Z"/></g>
</svg>
